<?xml version="1.0" encoding="UTF-8"?>
<svg data-bbox="99.1 316.12 413.8 160.77" viewBox="99.1 316.12 413.8 160.77" xmlns="http://www.w3.org/2000/svg" data-type="color">
    <g>
        <path d="M422.67 474.44c-.21 0-.42-.09-.57-.26a.748.748 0 0 1 .09-1.06c27.43-23.3 41.69-47.95 43.6-75.37.03-.41.39-.71.8-.7.41.03.73.39.7.8-1.94 27.84-16.37 52.83-44.13 76.41-.15.12-.32.18-.49.18z" fill="#1d1d1b" data-color="1"/>
        <path d="M210.34 446.5c-1.1.73-2.28-.04-3.54.49.28 4.07-.16 6.71.37 10.5.81.41 3.05-.69 3.26.61.28 1.34-1.51 1.46-2.44 1.55-1.26.08-2.56.77-3.09-.08-.29-.41-.08-1.06-.08-1.67.04-1.63.2-3.5.2-5.21.04-1.67-.29-3.87-.41-5.94-.24-3.38.16-7.16.08-10.95-.04-1.22-.41-2.73-.16-3.42.28-.85 1.51-.94 2.73-.94 1.14 0 2.28.08 2.89.28.45.16.57.9.2 1.38-.73 1.06-2.69-.2-3.83.49.08 4.03.2 7.2.12 11.03 1.42.57 3.21-.45 3.91.61.32.49.12 1.06-.21 1.27z" fill="#1d1d1b" data-color="1"/>
        <path d="M219.5 459.15c-1.3 1.1-3.17.65-4.35-.16-1.34-.98-1.38-2.81-1.42-4.72 0-1.47 0-3.05-.04-4.6-.04-.45-.04-1.51-.04-1.99-.04-1.06-.33-3.58.24-4.96.61-1.46 2.16-2.24 3.7-2.52.65-1.46-.37-6.92.29-8.34.24-.53 1.06-1.38 1.51-.69.45.61 0 1.51.04 2.28.04 5.33-.04 12 .08 17.09.04 2.16-.12 4.35.08 6.39.07.76.64 1.61-.09 2.22zm-1.88-16.64c-.57-.04-1.18.04-1.51.49-.37.45-.49.98-.61 1.67-.08.57-.04 1.51.04 2.24.2 1.91-.16 5.09 0 6.88.04.41.12 1.14.16 1.59.16 1.26.73 2.12 2.03 1.91.38-4.57-.06-10.3-.11-14.78z" fill="#1d1d1b" data-color="1"/>
        <path d="M226.58 459.52c-2.24.41-3.17-.12-3.91-1.55-.45-.85-.41-2.28-.45-3.26-.12-3.5 0-7.2-.08-10.91-.04-.9-.33-1.83-.12-2.73.2-.94 1.75-1.22 2.12-.12.2.53-.12 2.2-.12 3.17.12 2.89.04 6.88.2 9.89.08 1.26.16 3.83 1.59 3.66.81-.08.94-1.38.94-2.6 0-2.69-.08-7.45-.16-10.83-.04-1.06-.2-2.03-.04-2.89.2-.98 1.71-1.22 2.16-.12.2.57-.08 1.71-.08 2.32-.08 1.63-.12 4.07-.08 5.62.08 2.64.57 5.49.24 7.65-.18 1.24-1.4 2.58-2.21 2.7z" fill="#1d1d1b" data-color="1"/>
        <path d="M237.65 457.53c-.2.73-.41 1.55-.98 1.91-2.16 1.38-5.01.49-5.09-3.17-.12-3.34-.33-7.9-.33-11.19 0-2.04.37-3.79 1.46-4.6 1.38-1.02 3.78-.53 4.35 1.22.53 1.51.53 3.34.45 4.6-.04.37-.2.73-.45.77-.81.24-1.71-.2-1.71-.77 0-1.51.49-3.99-.94-4.48-1.38.73-1.22 2.56-1.18 4.6.04 1.59.12 2.89.24 4.15.16 2.28-.41 5.25.73 7.16.24.45.81.28 1.18-.12.9-.98.61-2.73.65-4.11.04-.65-.12-1.51.41-1.83 1.22-.69 1.51.45 1.55 1.63.06 1.34-.1 3.17-.34 4.23z" fill="#1d1d1b" data-color="1"/>
        <path d="M246.27 459.48c-2.08.16-4.8.65-5.29-.33-.94-1.67-.61-4.92-.65-7.2-.04-1.63.04-3.01 1.26-3.83.61-.41 1.71-.41 2.65-.53-.24-1.87 1.06-5.33-.81-5.74-1.34-.33-1.3.53-1.42 1.63-.12.77.16 1.79-.33 2.28-.53.57-1.38.12-1.46-.41-.33-1.83-.33-3.3.73-4.35.85-.9 2.28-1.3 3.42-.98 2.85.81 1.63 4.64 1.91 8.3.2 2.81.29 6.76.2 8.63-.01.66.85 2.45-.21 2.53zm-2.11-9.97c-2.24-.12-1.99 2.89-1.91 5.01.04.81-.12 1.55.08 2.2.45 1.38 1.38.81 2.24.53-.05-2.53.15-5.71-.41-7.74z" fill="#1d1d1b" data-color="1"/>
        <path d="M253.43 459.76c-.65-.2-1.3-.41-1.67-.94-.81-1.14-.94-2.69-1.1-4.4-.16-2.28.04-5.13 0-7.53 0-1.51-.12-2.93.04-4.23-.77-.04-2.2-.41-1.95-1.46.2-.85 1.1-1.06 1.95-.9.04-1.67 0-2.93-.08-4.48-.04-.77-.29-1.55-.12-2.24.16-.57 1.02-1.42 1.63-.9 1.06.86.41 2.69.41 4.07s0 2.36.04 3.7c.57-.2 1.51-.33 2.32-.24.69.08 1.26.33 1.3.81 0 .69-.57.9-1.3 1.02-.73.08-1.63.2-2.36.33 0 3.83-.2 8.38.12 11.92.12 1.22.28 2.81 1.18 3.34.41.24 1.18.2 1.67.37.45.16 1.02.69.61 1.3-.57.79-1.91.67-2.69.46z" fill="#1d1d1b" data-color="1"/>
        <path d="M259.01 438.03c-.81-.04-.94-.94-.98-2.32-.04-1.06-.45-2.2-.2-2.81.2-.53 1.38-.77 1.71-.2.28.53.24 1.38.37 2.2.12.85.2 1.3.04 2.03-.09.37-.45 1.1-.94 1.1zm1.26 21.21c-.28.65-1.59.37-1.79-.2-.24-.77-.12-1.59-.12-2.4-.16-3.42.08-6.88-.12-10.46-.08-1.63-.61-3.5-.2-4.56.33-.85 1.63-1.18 1.91-.12.2.77-.04 1.59 0 2.36 0 1.71.12 3.3.12 4.96 0 2.69.16 5.29.24 7.98 0 .81.29 1.66-.04 2.44z" fill="#1d1d1b" data-color="1"/>
        <path d="M268.65 459.07c-.94 1.02-2.48.98-3.17.65-.85-.41-1.75-.9-1.99-1.87-.2-.77-.28-1.63-.24-2.48 0-1.99.37-4.56.2-6.8-.12-1.59-.49-3.42-.24-4.8.16-1.1.33-2.28 1.22-2.89.65-.45 1.26-.57 2.32-.45 1.06.08 2.28.69 2.6 2.12.2.73-.04 2.4.08 3.34.28 2.08.2 5.49.28 7.33.12 2.35.24 4.51-1.06 5.85zm-1.06-7.24c0-1.55.12-2.81 0-4.31-.16-1.59.2-3.66-.77-4.84-.2-.24-.98-.24-1.18 0-.37.45-.41 1.14-.49 1.75-.29 3.01 0 7.53.2 10.58.04.73-.08 1.51.29 2.03.28.49.81 1.14 1.46.65.53-.41.65-1.06.69-1.79.05-1.18-.16-2.89-.2-4.07z" fill="#1d1d1b" data-color="1"/>
        <path d="M278.95 459.93c-.85.41-1.75.04-1.87-.77-.28-1.67-.12-3.5-.16-5.21-.04-2.48.16-5.09.12-7.61-.04-1.26.16-3.66-.33-3.54-1.51.41-1.79 1.95-2.2 3.26-.57 2.08-.41 4.03-.16 6.14.12 1.02-.04 2.48.12 3.83.2 1.63 1.3 3.66-.69 3.7-.53.04-1.14-.37-1.18-.85-.33-5.86-.04-10.66-.57-16.12-.04-.53-.08-1.06.04-1.63.12-.81 1.38-1.26 1.91-.49.28.37.08.94.2 1.38.45-.04.61-.77.85-.94.61-.49 1.91-1.14 2.77-.69.53.25.98 1.75 1.02 2.36.16 1.26.08 3.09.04 4.56-.04 1.91 0 3.95.12 5.82.08 1.59.04 3.13.2 4.48.13.85.7 1.91-.23 2.32z" fill="#1d1d1b" data-color="1"/>
        <path d="M294.53 459.2c-1.26 1.14-4.35 1.38-4.96-.41-1.34-4.03-.53-8.14-.53-13.1 0-3.01-.04-5.98-.33-8.63-.16-1.5-.2-2.81.41-3.91.49-.9 1.59-1.63 2.36-1.67 1.51-.08 2.44.16 3.05 1.14.9 1.42.94 5.49.53 6.96-.16.65-1.42.65-1.67.2-.37-.65-.08-2.73-.12-3.78 0-1.26-.33-2.6-1.38-2.69-.94-.04-1.26 1.18-1.18 2.81.04.37.08 1.06.12 1.46.41 3.05.04 7.08.12 10.91 0 1.46.04 3.3.08 5.45.04 1.42.24 4.15 1.18 4.31 1.51.29 1.51-2.08 1.51-3.38-.04-1.3-.08-1.99-.2-3.5-.04-.53.45-1.1.81-1.14 1.55-.16 1.22 1.71 1.26 2.97.12 2.25.37 4.73-1.06 6z" fill="#1d1d1b" data-color="1"/>
        <path d="M304.14 459.07c-.94 1.02-2.48.98-3.17.65-.85-.41-1.75-.9-1.99-1.87-.2-.77-.28-1.63-.24-2.48 0-1.99.37-4.56.2-6.8-.12-1.59-.49-3.42-.24-4.8.16-1.1.33-2.28 1.22-2.89.65-.45 1.26-.57 2.32-.45 1.06.08 2.28.69 2.6 2.12.2.73-.04 2.4.08 3.34.29 2.08.2 5.49.29 7.33.11 2.35.23 4.51-1.07 5.85zm-1.06-7.24c0-1.55.12-2.81 0-4.31-.16-1.59.2-3.66-.77-4.84-.2-.24-.98-.24-1.18 0-.37.45-.41 1.14-.49 1.75-.29 3.01 0 7.53.2 10.58.04.73-.08 1.51.29 2.03.28.49.81 1.14 1.46.65.53-.41.65-1.06.69-1.79.04-1.18-.16-2.89-.2-4.07z" fill="#1d1d1b" data-color="1"/>
        <path d="M314.15 459.52c-.49.45-1.14.24-1.59-.41-.41-.61-.16-1.47-.16-2.2.04-3.42.16-6.88 0-10.17-.04-1.22.2-3.66-.41-3.38-1.3.61-1.87 2.2-2.08 3.87-.41 2.85-.41 5.62.04 8.75.2 1.46.86 4.11-.94 3.87-1.63-.24-.85-1.91-.85-3.3-.04-2.12-.41-4.52-.29-7 .08-1.79 0-3.62-.12-5.33-.12-.98-.61-1.79-.24-2.85.2-.73.73-.57 1.34-.45.45.12.53.85.69 1.83.98-1.38 3.3-2.89 4.23-1.5.53.81.41 2.12.49 3.3.2 3.74-.33 8.22 0 11.8.13 1.14.58 2.52-.11 3.17zm7.24.08c-.41.12-1.38.08-1.91-.04-.49-.12-1.26-.37-1.59-.9-.49-.77-.53-2.08-.57-3.34 0-1.14-.08-2.2.16-2.73.24-.57 1.06-.65 1.59-.41.53.29.37 1.26.29 2.32-.12 1.46-.29 2.81.89 3.05 1.06.24 1.02-1.06.98-1.79-.04-1.59.28-3.46-.53-4.72-.69-1.02-1.79-1.34-2.89-1.95-.81-.45-.9-1.59-.85-2.85 0-1.79-.61-3.95.29-5.21.28-.45.61-.65 1.1-.94.77-.49 2.32-1.02 3.38-.24.49.33.89.9 1.06 1.59.16.77-.04 1.42-.08 2.36 0 .94.28 2.08-.37 2.56-.45.37-1.06.29-1.34-.16-.49-.65-.24-1.47-.16-2.36.08-.86 0-1.34-.2-2.2-1.79-.37-2.04 1.26-1.95 3.01.04 1.06.04 2.24.57 2.69 1.14.94 2.81 1.14 3.5 2.81.69 1.71.65 4.11.53 6.14-.15 1.56-.52 2.82-1.9 3.31z" fill="#1d1d1b" data-color="1"/>
        <path d="M330.34 459.52c-2.24.41-3.17-.12-3.91-1.55-.45-.85-.41-2.28-.45-3.26-.12-3.5 0-7.2-.08-10.91-.04-.9-.33-1.83-.12-2.73.2-.94 1.75-1.22 2.12-.12.2.53-.12 2.2-.12 3.17.12 2.89.04 6.88.2 9.89.08 1.26.16 3.83 1.59 3.66.81-.08.94-1.38.94-2.6 0-2.69-.08-7.45-.16-10.83-.04-1.06-.2-2.03-.04-2.89.2-.98 1.71-1.22 2.16-.12.2.57-.08 1.71-.08 2.32-.08 1.63-.12 4.07-.08 5.62.08 2.64.57 5.49.24 7.65-.17 1.24-1.39 2.58-2.21 2.7z" fill="#1d1d1b" data-color="1"/>
        <path d="M335.96 459.36c-.45-.61-.16-1.51-.24-2.28-.24-3.87-.12-8.34-.28-12.17-.16-3.54.04-7.24-.12-10.95-.04-.61-.29-1.3-.12-1.87.24-.69 1.63-.89 2.03-.24.33.57.24 1.3.29 1.95.12 3.83-.12 7.41-.12 10.99-.04 3.66.2 7.33.49 11.31.04.85.37 1.75.2 2.6-.18.82-1.56 1.47-2.13.66zm10.17.89c-.77 0-2.36-.53-2.81-.89-.49-.37-.77-1.63-.9-2.4-.24-1.87-.12-5.21-.12-8.26 0-1.83-.12-4.4-.08-5.66-.9-.2-2.65-.49-2.24-1.38.29-.65 1.1-1.1 1.91-.94-.08-1.46-.16-2.6-.08-4.56.04-1.42-.57-2.48.49-3.17.85-.57 1.38.45 1.55 1.63.12.94-.12 1.91-.04 2.48.2 1.99.04 1.02 0 3.42.94.57 3.09-.77 3.62.65.24.77-.41 1.06-1.22 1.26-.77.16-1.14.24-2.08.33.04 2.32.12 9.08.16 11.03 0 .61-.16 1.14-.12 1.71.2 2.32 1.38 2.77 3.09 2.4.49-.12.9.69.73 1.42-.15.61-1.17.93-1.86.93z" fill="#1d1d1b" data-color="1"/>
        <path d="M350.48 438.03c-.81-.04-.94-.94-.98-2.32-.04-1.06-.45-2.2-.2-2.81.2-.53 1.38-.77 1.71-.2.29.53.24 1.38.37 2.2.12.85.2 1.3.04 2.03-.08.37-.45 1.1-.94 1.1zm1.27 21.21c-.28.65-1.59.37-1.79-.2-.24-.77-.12-1.59-.12-2.4-.16-3.42.08-6.88-.12-10.46-.08-1.63-.61-3.5-.2-4.56.33-.85 1.63-1.18 1.91-.12.2.77-.04 1.59 0 2.36 0 1.71.12 3.3.12 4.96 0 2.69.16 5.29.24 7.98 0 .81.28 1.66-.04 2.44z" fill="#1d1d1b" data-color="1"/>
        <path d="M361.1 459.52c-.49.45-1.14.24-1.59-.41-.41-.61-.16-1.47-.16-2.2.04-3.42.16-6.88 0-10.17-.04-1.22.2-3.66-.41-3.38-1.3.61-1.87 2.2-2.08 3.87-.41 2.85-.41 5.62.04 8.75.2 1.46.86 4.11-.94 3.87-1.63-.24-.85-1.91-.85-3.3-.04-2.12-.41-4.52-.29-7 .08-1.79 0-3.62-.12-5.33-.12-.98-.61-1.79-.24-2.85.2-.73.73-.57 1.34-.45.45.12.53.85.69 1.83.98-1.38 3.3-2.89 4.23-1.5.53.81.41 2.12.49 3.3.2 3.74-.33 8.22 0 11.8.14 1.14.59 2.52-.11 3.17zm9.49-14.98c0 3.99.08 7.33.12 11.03.04 3.17.16 7-2.03 8.26-1.06.61-2.32.77-3.3 0-.49-.37-.45-.98.04-1.42.61-.49 1.46 0 1.99-.24 1.02-.49 1.22-1.91 1.06-2.89-.81.04-1.87 0-2.85-.41-1.14-.49-1.3-2.04-1.51-3.62-.24-1.59-.16-3.42-.16-5.33-.04-2.12-.16-4.31-.04-6.55.04-.86.98-2.12 1.75-2.48 1.87-.9 2.6-.65 4.31-.61.65.04.81.77.81 1.59-.03.8-.19 1.82-.19 2.67zm-2.08-2.56c-.98-.08-2.52.73-2.6 1.87-.2 2.44-.2 4.44 0 7.28.12 2.03.2 3.91.85 5.29.37.77.77.9 1.83.73.08-2.64.29-5.13.24-7.65-.03-1.82-.32-5.52-.32-7.52z" fill="#1d1d1b" data-color="1"/>
        <path d="M375.55 459.97c-.08.94-.45 1.75-1.06 2.16-.61.45-1.95.9-2.24-.12-.2-.69.65-1.14 1.26-1.71.69-.65.08-2.56.04-3.87 0-1.26.2-2.56 1.67-1.95.45.2.45 1.06.53 1.71.09 1.26-.12 2.68-.2 3.78z" fill="#1d1d1b" data-color="1"/>
        <path d="M386.5 459.36c-.45-.61-.16-1.51-.24-2.28-.24-3.87-.12-8.34-.28-12.17-.16-3.54.04-7.24-.12-10.95-.04-.61-.29-1.3-.12-1.87.24-.69 1.63-.89 2.03-.24.33.57.24 1.3.29 1.95.12 3.83-.12 7.41-.12 10.99-.04 3.66.2 7.33.49 11.31.04.85.37 1.75.2 2.6-.18.82-1.56 1.47-2.13.66z" fill="#1d1d1b" data-color="1"/>
        <path d="M398.18 459.93c-.85.41-1.75.04-1.87-.77-.28-1.67-.12-3.5-.16-5.21-.04-2.48.16-5.09.12-7.61-.04-1.26.16-3.66-.33-3.54-1.5.41-1.79 1.95-2.2 3.26-.57 2.08-.41 4.03-.16 6.14.12 1.02-.04 2.48.12 3.83.2 1.63 1.3 3.66-.69 3.7-.53.04-1.14-.37-1.18-.85-.33-5.86-.04-10.66-.57-16.12-.04-.53-.08-1.06.04-1.63.12-.81 1.38-1.26 1.91-.49.29.37.08.94.2 1.38.45-.04.61-.77.85-.94.61-.49 1.91-1.14 2.77-.69.53.25.98 1.75 1.02 2.36.16 1.26.08 3.09.04 4.56-.04 1.91 0 3.95.12 5.82.08 1.59.04 3.13.2 4.48.13.85.7 1.91-.23 2.32z" fill="#1d1d1b" data-color="1"/>
        <path d="M407.25 457.53c-.2.73-.41 1.55-.98 1.91-2.16 1.38-5 .49-5.09-3.17-.12-3.34-.33-7.9-.33-11.19 0-2.04.37-3.79 1.46-4.6 1.38-1.02 3.79-.53 4.35 1.22.53 1.51.53 3.34.45 4.6-.04.37-.2.73-.45.77-.81.24-1.71-.2-1.71-.77 0-1.51.49-3.99-.94-4.48-1.38.73-1.22 2.56-1.18 4.6.04 1.59.12 2.89.24 4.15.16 2.28-.41 5.25.73 7.16.24.45.81.28 1.18-.12.9-.98.61-2.73.65-4.11.04-.65-.12-1.51.41-1.83 1.22-.69 1.51.45 1.55 1.63.07 1.34-.1 3.17-.34 4.23z" fill="#1d1d1b" data-color="1"/>
        <path d="M410.71 459.48c-.37-.2-.45-1.3-.49-2.24-.04-.94-.04-1.87.61-2.12 1.06-.37 1.67.98 1.67 2.28 0 1.31-.53 2.73-1.79 2.08z" fill="#1d1d1b" data-color="1"/>
        <path d="M466.56 398.55c-25.55 0-46.34-20.61-46.34-45.95 0-13.88 6.24-26.88 17.12-35.66.28-.22.67-.22.94 0 7.96 6.42 18.01 9.96 28.28 9.96s20.32-3.54 28.28-9.96c.27-.22.67-.22.94 0 10.88 8.78 17.12 21.77 17.12 35.66.01 25.34-20.78 45.95-46.34 45.95zm-28.74-80.06c-10.24 8.48-16.1 20.88-16.1 34.11 0 24.51 20.12 44.45 44.84 44.45s44.84-19.94 44.84-44.45c0-13.23-5.86-25.63-16.1-34.11-8.15 6.4-18.33 9.91-28.74 9.91s-20.59-3.51-28.74-9.91z" fill="#1d1d1b" data-color="1"/>
        <path d="M422.76 475.63c-.65 0-1.26-.23-1.74-.67-.53-.49-.83-1.17-.83-1.91V352.6h1.5v120.45c0 .32.12.61.34.81.22.2.51.3.84.27.22-.02 22.4-2.13 44.28-18.11 20.18-14.74 44.23-44.64 44.23-103.41h1.5c0 59.45-24.42 89.73-44.91 104.67-22.21 16.19-44.75 18.33-44.97 18.35h-.24z" fill="#1d1d1b" data-color="1"/>
        <path d="M451.55 358.41c-3.23 0-5.86-2.61-5.86-5.81s2.63-5.81 5.86-5.81 5.86 2.61 5.86 5.81-2.63 5.81-5.86 5.81zm0-10.12c-2.4 0-4.36 1.93-4.36 4.31s1.95 4.31 4.36 4.31 4.36-1.93 4.36-4.31-1.96-4.31-4.36-4.31z" fill="#1d1d1b" data-color="1"/>
        <path d="M481.57 358.41c-3.23 0-5.86-2.61-5.86-5.81s2.63-5.81 5.86-5.81 5.86 2.61 5.86 5.81-2.63 5.81-5.86 5.81zm0-10.12c-2.4 0-4.36 1.93-4.36 4.31s1.96 4.31 4.36 4.31 4.36-1.93 4.36-4.31-1.95-4.31-4.36-4.31z" fill="#1d1d1b" data-color="1"/>
        <path d="M466.56 368.1c-.41 0-.75-.34-.75-.75 0-24.22-19.88-43.92-44.31-43.92-.41 0-.75-.34-.75-.75s.34-.75.75-.75c25.26 0 45.81 20.38 45.81 45.42 0 .41-.33.75-.75.75z" fill="#1d1d1b" data-color="1"/>
        <path d="M466.56 368.1c-.41 0-.75-.34-.75-.75 0-25.05 20.55-45.42 45.81-45.42.41 0 .75.34.75.75s-.34.75-.75.75c-24.43 0-44.31 19.7-44.31 43.92 0 .41-.33.75-.75.75z" fill="#1d1d1b" data-color="1"/>
        <path d="m254.48 401.14-28.56-68.46-5.45-13.26h-4.27c-4.38 0-11.02-.23-15.4-.68l.24.57c5.21 3.29 9.01 8.39 9.01 13.03 0 .68-.12 1.47-.24 1.93-9.36 21.87-19.31 44.43-28.67 66.3-.23.45-.48.89-.73 1.34-4.58-3.45-9.66-6.67-14.78-9.91-4.01-2.29-7.84-4.78-12.62-8.41-1.53-1.15-3.06-2.1-4.59-3.25-13-8.98-25.23-17.78-25.23-34.22 0-11.47 11.47-21.6 21.98-21.6 7.46 0 18.16 3.25 25.04 8.98 1.53 1.72 3.82 4.97 6.12 9.56 2.1 4.01 4.21 6.12 6.31 6.12 1.72 0 3.44-1.91 3.44-3.25 0-2.87-.19-7.26-.76-13-.57-5.93-.96-10.7-.96-13.95 0-1.15-.96-1.72-3.06-1.72-1.91 0-3.82.38-5.73 1.15h.19c-1.72.57-3.06.96-3.63.96-2.48 0-6.31-.57-11.85-1.72-5.54-.96-9.94-1.53-12.81-1.53-28.87 0-42.82 20.45-42.82 40.14 0 20.84 17.01 31.54 34.79 43.58 3.06 2.1 7.26 4.4 10.7 6.5 13.57 8.03 28.67 17.2 28.67 33.84 0 17.97-15.68 27.91-28.29 27.91-4.01 0-16.82-1.53-23.32-4.01-4.78-2.49-9.75-5.93-13-9.75-3.06-3.82-4.78-8.41-6.69-13.76-.76-2.1-2.29-3.25-3.25-3.25-3.25 0-5.16 3.63-5.16 6.69 0 4.01.57 8.6 1.34 13.38.19.96.19 1.53.19 1.53 0 6.69 1.34 10.13 7.07 11.85.19 0 2.29.57 4.97 1.34 10.9 3.25 25.81 4.78 34.41 4.78 34.41 0 51.42-19.5 51.42-45.31 0-9.63-4.3-17.03-10.73-23.39v-.02c0-1.36.47-3.06 1.3-5.33 3.44-8.73 7.11-17.57 10.54-26.29h-.95c5.09-.57 10.54-.79 16.35-.79 4.27 0 9.48.23 15.52.79h-.95c3.08 7.93 6.16 16.32 9.24 24.25.36 1.13.83 2.83.83 4.42 0 1.13-.59 2.49-1.9 4.31-1.18 1.7-1.9 2.72-1.9 3.06v.91c5.69-.79 10.78-1.25 15.17-1.25 4.27 0 8.89.45 14.22 1.25v-.79c-4.72-1.82-8.28-5.67-10.76-11.57zm-39.7-29.69c-4.5 0-8.77-.11-13.03-.34h1.07v-.57h-.12c4.15-9.75 8.41-19.49 12.56-29.24 4.27 10.65 7.58 18.59 11.85 29.24h-.12v.57h1.07c-4.39.23-8.66.34-13.28.34z" fill="#798b6b" data-color="2"/>
        <path d="M331.8 368.73c-2.95 0-7.48-.23-13.26-.79v.57c2.49 1.59 4.31 3.4 5.21 5.44.68 1.36 1.13 4.19 1.36 7.71.11 2.15.23 5.67.34 10.77.11 1.02.11 2.95.11 3.63-1.25 9.29-17 12.92-22.78 12.92-20.06 0-36.15-22.33-35.93-45.33 0-23.23 15.07-40.58 38.76-40.58 6.12 0 12.01 1.36 17.45 4.08h-.11c3.63 1.93 6.57 5.44 9.41 9.63.91 1.36 1.93 2.38 2.95 2.38 1.13 0 1.93-2.27 1.93-3.63 0-.68 0-2.49-.11-4.08 0-.45-.11-1.02-.11-1.47-.11-1.47-.11-2.61-.11-3.51 0-.79 0-1.59.11-2.61 0-1.93-1.02-2.27-2.95-1.81h.11c-1.02.11-2.15.23-3.06.23-1.59 0-4.42-.79-7.25-1.59-4.76-1.36-11.56-3.17-20.51-3.17-29.81 0-51 22.67-50.66 49.08-.34 25.95 22.33 48.17 48.74 47.83 10.31 0 16.32-1.93 22.44-3.97 3.63-1.25 7.82-2.61 12.35-3.4 1.59-.34 2.04-2.38 2.04-3.74v-11.67c.57-17.57 1.59-21.31 5.33-23.23l.11-.45c-.34 0-2.15.11-2.61.11-2.95.2-7.49.65-9.3.65z" fill="#798b6b" data-color="2"/>
        <path d="M411.45 326.45c-.07-1.48-.03-2.61 0-3.52.02-.79.05-1.59.19-2.6.06-1.93-.92-2.3-2.79-1.9h.11c-.99.08-2.09.16-2.96.13-1.53-.05-12.78.33-20.29.72-.75.05-1.52.1-2.32.15l-8.69.23c-6.03.34-9.97.45-12.27.45-2.63 0-8.44-.45-14.68-1.02-.44 0-.99-.11-1.42-.11l-1.86-.11.22.91c5.59 3.06 8.11 7.71 8.44 12.47.55 11.33.88 23.69.88 35.36v16.09c0 3.06-.11 7.03-.22 11.56v2.83c0 4.87-4.6 11.9-8.11 13.71v1.47l2.08-.11c.44 0 .88-.11 1.31-.11 4.6-.34 8-.68 10.74-.68h9.86c3.47.11 7.47.11 12.01.11 7.51.38 20.79.57 22.32.52.88-.03 1.97.05 2.96.13h-.11c1.88.39 2.85.02 2.79-1.9-.14-1.02-.16-1.81-.19-2.6-.03-.91-.06-2.04 0-3.52-.01-.45.08-1.02.07-1.48.06-1.59.01-3.4-.01-4.08-.04-1.36-.88-3.6-1.97-3.57-.99.03-1.94 1.08-2.78 2.47-2.61 4.28-3.02 6.18-6.47 8.22l-2.28.84c-2.38.6-3.48.55-5.5.43v-.01h-.17c-.88-.05-7.55-.11-8.94-.13-6.95-.51-14.42-2.78-14.7-9.84-.33-6.01-.55-11.9-.66-16.09-.11-4.42-.22-9.29-.22-14.62h-.33c3.07-.11 12.19-.23 14.6-.23 3.62 0 2.25.11 4.44.34 5.26.34 9.86 1.93 11.94 6.23h2.85c0-.79-.11-1.47-.11-2.04-.11-1.02-.11-1.81-.11-2.38v-4.19c0-2.38.11-4.08.44-6.46 0-.45 0-1.02.11-1.59 0-.57.11-1.02.22-1.59h-2.74c-3.07 4.99-7.01 6.35-11.61 6.57-1.86.11-3.07.11-4.27.11-1.1 0 2.14 0 .93-.11-.77 0-8.79-.11-9.89-.11-2.85-.11-4.71-.11-6.47-.11 0-8.84 0-15.07.11-18.81.11-3.74.22-7.14.33-10.2 0-.68.11-1.36.11-2.04.11-2.83.44-4.76.77-6.01h-.55c.55 0 1.1-.11 1.75-.11 1.21-.11 2.63-.23 4.27-.34 2.82-.3 10.65-.42 12.03-.45 5.91.19 9.41-.71 13.36.3l2.28.84c3.45 2.04 3.85 3.94 6.47 8.22.84 1.39 1.79 2.44 2.78 2.47 1.1.04 1.93-2.21 1.97-3.57.02-.68.07-2.49.01-4.08.02-.44-.07-1.01-.06-1.46z" fill="#798b6b" data-color="2"/>
    </g>
</svg>
